<svg width="38" height="27" viewBox="0 0 38 27" fill="none" xmlns="http://www.w3.org/2000/svg">
<path d="M17.6785 2.68021H20.3879C21.2007 2.68021 21.7426 2.14417 21.7426 1.3401C21.7426 0.536042 21.2007 0 20.3879 0H17.6785C16.8656 0 16.3237 0.536042 16.3237 1.3401C16.3237 2.14417 16.8656 2.68021 17.6785 2.68021Z" fill="#F0962F"/>
<path d="M37.8645 19.4303C37.5936 19.0283 37.0517 18.7603 36.6453 18.7603H35.1551C34.4777 12.8638 29.6007 6.96734 23.369 5.09119C20.5241 4.15312 17.4082 4.15312 14.5633 5.09119C8.46702 6.96734 3.45455 12.8638 2.91266 18.7603H1.42246C1.01604 18.7603 0.474153 19.0283 0.203209 19.4303C-0.0677362 19.8323 -0.0677362 20.3684 0.203209 20.7704C2.09982 24.5227 5.89305 26.8009 10.2282 26.8009H27.975C32.1747 26.8009 36.1034 24.5227 38 20.6364C38 20.2344 38 19.8323 37.8645 19.4303ZM15.3761 7.63739C17.6791 6.96733 20.2531 6.96733 22.5561 7.63739C27.5686 9.1115 31.7683 13.9359 32.4456 18.7603H5.6221C6.29947 13.9359 10.3636 9.24551 15.3761 7.63739ZM27.8396 24.1207H10.2282C7.78966 24.1207 5.6221 23.1826 3.99644 21.4405H34.0713C32.4456 23.1826 30.2781 24.1207 27.8396 24.1207Z" fill="#F0962F"/>
</svg>
