<svg width="31" height="28" viewBox="0 0 31 28" fill="none" xmlns="http://www.w3.org/2000/svg">
<path d="M1.02342 10.0277H0.505545L0.523732 10.5453C0.534145 10.8417 0.553582 11.1358 0.581778 11.4274C0.532854 10.9658 0.505508 10.4981 0.50075 10.0254H29.8784V10.0266C29.8784 18.0443 23.2787 24.5712 15.1501 24.5519C14.504 24.5496 13.868 24.5056 13.2446 24.4226C13.881 24.5063 14.5301 24.5495 15.1892 24.5495C23.1049 24.5495 29.5817 18.316 29.8547 10.5453L29.8729 10.0277H29.355H1.02342Z" fill="#F0962F" stroke="#F0962F"/>
<path d="M21.2929 25.1311C21.2929 25.1309 21.2929 25.1307 21.2929 25.1306C21.2942 25.1303 21.2964 25.1299 21.2996 25.1299C21.3021 25.1299 21.3028 25.1303 21.3028 25.1304C21.3033 25.1305 21.3042 25.131 21.3052 25.1321C21.3057 25.1325 21.306 25.1329 21.3062 25.1332V26.0032C21.3062 26.594 20.8259 27.0769 20.2153 27.0769H10.1534C9.54282 27.0769 9.0625 26.594 9.0625 26.0032V25.1311C9.0625 25.1309 9.0625 25.1307 9.06251 25.1306C9.06383 25.1303 9.06597 25.1299 9.06915 25.1299C9.07232 25.1299 9.07446 25.1303 9.07578 25.1306C9.07579 25.1307 9.07579 25.1309 9.07579 25.1311V26.0032C9.07579 26.6108 9.57399 27.0745 10.1534 27.0745H20.2153C20.8163 27.0745 21.2929 26.5894 21.2929 26.0032V25.1311Z" fill="#F0962F" stroke="#F0962F"/>
<mask id="path-3-inside-1_1_561" fill="white">
<path d="M3.06019 14.7869C3.24259 14.9974 3.56684 15.0175 3.77963 14.827L5.15771 13.6242C5.35023 13.4538 5.63395 13.4538 5.82648 13.6242L7.57947 15.1578C7.772 15.3282 8.05572 15.3282 8.24824 15.1578L10.0012 13.6242C10.1938 13.4538 10.4775 13.4538 10.67 13.6242L12.423 15.1578C12.6155 15.3282 12.8992 15.3282 13.0918 15.1578L14.8448 13.6242C15.0373 13.4538 15.321 13.4538 15.5135 13.6242L17.2665 15.1578C17.4591 15.3282 17.7428 15.3282 17.9353 15.1578L19.6883 13.6242C19.8808 13.4538 20.1645 13.4538 20.3571 13.6242L22.1101 15.1578C22.3026 15.3282 22.5863 15.3282 22.7788 15.1578L24.5318 13.6242C24.7243 13.4538 25.0081 13.4538 25.2006 13.6242L26.5787 14.827C26.7915 15.0075 27.1056 14.9874 27.2981 14.7869C27.4805 14.5764 27.4602 14.2657 27.2576 14.0753L25.2209 12.2911C25.0283 12.1207 24.7446 12.1207 24.5521 12.2911L22.7991 13.8247C22.6066 13.9951 22.3228 13.9951 22.1303 13.8247L20.3773 12.2911C20.1848 12.1207 19.9011 12.1207 19.7086 12.2911L17.9556 13.8247C17.763 13.9951 17.4793 13.9951 17.2868 13.8247L15.5338 12.2911C15.3413 12.1207 15.0576 12.1207 14.865 12.2911L13.112 13.8247C12.9195 13.9951 12.6358 13.9951 12.4433 13.8247L10.6903 12.2911C10.4977 12.1207 10.214 12.1207 10.0215 12.2911L8.26851 13.8247C8.07598 13.9951 7.79226 13.9951 7.59974 13.8247L5.84674 12.2911C5.65422 12.1207 5.3705 12.1207 5.17797 12.2911L3.13113 14.0753C2.89807 14.2657 2.8778 14.5764 3.06019 14.7869Z"/>
</mask>
<path d="M3.06019 14.7869C3.24259 14.9974 3.56684 15.0175 3.77963 14.827L5.15771 13.6242C5.35023 13.4538 5.63395 13.4538 5.82648 13.6242L7.57947 15.1578C7.772 15.3282 8.05572 15.3282 8.24824 15.1578L10.0012 13.6242C10.1938 13.4538 10.4775 13.4538 10.67 13.6242L12.423 15.1578C12.6155 15.3282 12.8992 15.3282 13.0918 15.1578L14.8448 13.6242C15.0373 13.4538 15.321 13.4538 15.5135 13.6242L17.2665 15.1578C17.4591 15.3282 17.7428 15.3282 17.9353 15.1578L19.6883 13.6242C19.8808 13.4538 20.1645 13.4538 20.3571 13.6242L22.1101 15.1578C22.3026 15.3282 22.5863 15.3282 22.7788 15.1578L24.5318 13.6242C24.7243 13.4538 25.0081 13.4538 25.2006 13.6242L26.5787 14.827C26.7915 15.0075 27.1056 14.9874 27.2981 14.7869C27.4805 14.5764 27.4602 14.2657 27.2576 14.0753L25.2209 12.2911C25.0283 12.1207 24.7446 12.1207 24.5521 12.2911L22.7991 13.8247C22.6066 13.9951 22.3228 13.9951 22.1303 13.8247L20.3773 12.2911C20.1848 12.1207 19.9011 12.1207 19.7086 12.2911L17.9556 13.8247C17.763 13.9951 17.4793 13.9951 17.2868 13.8247L15.5338 12.2911C15.3413 12.1207 15.0576 12.1207 14.865 12.2911L13.112 13.8247C12.9195 13.9951 12.6358 13.9951 12.4433 13.8247L10.6903 12.2911C10.4977 12.1207 10.214 12.1207 10.0215 12.2911L8.26851 13.8247C8.07598 13.9951 7.79226 13.9951 7.59974 13.8247L5.84674 12.2911C5.65422 12.1207 5.3705 12.1207 5.17797 12.2911L3.13113 14.0753C2.89807 14.2657 2.8778 14.5764 3.06019 14.7869Z" fill="#F0962F"/>
<path d="M3.77963 14.827L3.122 14.0736L3.11273 14.0819L3.77963 14.827ZM5.15771 13.6242L5.8153 14.3776L5.82048 14.373L5.15771 13.6242ZM5.82648 13.6242L5.1637 14.373L5.16804 14.3768L5.82648 13.6242ZM7.57947 15.1578L8.24225 14.409L8.23791 14.4052L7.57947 15.1578ZM8.24824 15.1578L7.58979 14.4052L7.58547 14.409L8.24824 15.1578ZM10.0012 13.6242L10.6597 14.3768L10.664 14.373L10.0012 13.6242ZM10.67 13.6242L10.0072 14.373L10.0116 14.3768L10.67 13.6242ZM12.423 15.1578L13.0858 14.409L13.0814 14.4052L12.423 15.1578ZM13.0918 15.1578L12.4333 14.4052L12.429 14.409L13.0918 15.1578ZM14.8448 13.6242L15.5032 14.3768L15.5075 14.373L14.8448 13.6242ZM15.5135 13.6242L14.8508 14.373L14.8551 14.3768L15.5135 13.6242ZM17.2665 15.1578L17.9293 14.409L17.925 14.4052L17.2665 15.1578ZM17.9353 15.1578L17.2768 14.4052L17.2725 14.409L17.9353 15.1578ZM19.6883 13.6242L20.3467 14.3768L20.3511 14.373L19.6883 13.6242ZM20.3571 13.6242L19.6943 14.373L19.6986 14.3768L20.3571 13.6242ZM22.1101 15.1578L22.7728 14.409L22.7685 14.4052L22.1101 15.1578ZM22.7788 15.1578L22.1204 14.4052L22.1161 14.409L22.7788 15.1578ZM24.5318 13.6242L25.1903 14.3768L25.1946 14.373L24.5318 13.6242ZM25.2006 13.6242L24.5378 14.373L24.543 14.3776L25.2006 13.6242ZM26.5787 14.827L25.9211 15.5804L25.9265 15.5851L25.9319 15.5898L26.5787 14.827ZM27.2981 14.7869L28.0194 15.4796L28.0371 15.4611L28.0539 15.4418L27.2981 14.7869ZM27.2576 14.0753L27.9424 13.3465L27.9297 13.3346L27.9165 13.3231L27.2576 14.0753ZM25.2209 12.2911L24.5581 13.0399L24.5619 13.0433L25.2209 12.2911ZM24.5521 12.2911L25.2105 13.0437L25.2149 13.0399L24.5521 12.2911ZM22.7991 13.8247L22.1406 13.072L22.1363 13.0758L22.7991 13.8247ZM22.1303 13.8247L22.7931 13.0758L22.7888 13.072L22.1303 13.8247ZM20.3773 12.2911L19.7145 13.0399L19.7189 13.0437L20.3773 12.2911ZM19.7086 12.2911L20.367 13.0437L20.3713 13.0399L19.7086 12.2911ZM17.9556 13.8247L17.2971 13.072L17.2928 13.0758L17.9556 13.8247ZM17.2868 13.8247L17.9496 13.0758L17.9452 13.072L17.2868 13.8247ZM15.5338 12.2911L14.871 13.0399L14.8754 13.0437L15.5338 12.2911ZM14.865 12.2911L15.5235 13.0437L15.5278 13.0399L14.865 12.2911ZM13.112 13.8247L12.4536 13.072L12.4493 13.0758L13.112 13.8247ZM12.4433 13.8247L13.106 13.0758L13.1017 13.072L12.4433 13.8247ZM10.6903 12.2911L10.0275 13.0399L10.0318 13.0437L10.6903 12.2911ZM10.0215 12.2911L10.68 13.0437L10.6843 13.0399L10.0215 12.2911ZM8.26851 13.8247L7.61006 13.072L7.60574 13.0758L8.26851 13.8247ZM7.59974 13.8247L8.26252 13.0758L8.25818 13.072L7.59974 13.8247ZM5.84674 12.2911L5.18396 13.0399L5.1883 13.0437L5.84674 12.2911ZM5.17797 12.2911L5.83508 13.0449L5.84074 13.0399L5.17797 12.2911ZM3.13113 14.0753L3.76389 14.8496L3.77622 14.8395L3.78821 14.8291L3.13113 14.0753ZM2.30444 15.4418C2.85984 16.0828 3.8258 16.1277 4.44653 15.5722L3.11273 14.0819C3.30788 13.9072 3.62534 13.9121 3.81595 14.1321L2.30444 15.4418ZM4.43721 15.5804L5.81528 14.3776L4.50013 12.8708L3.12205 14.0736L4.43721 15.5804ZM5.82048 14.373C5.63462 14.5375 5.34957 14.5375 5.16371 14.373L6.48925 12.8754C5.91834 12.3701 5.06585 12.3701 4.49494 12.8754L5.82048 14.373ZM5.16804 14.3768L6.92103 15.9104L8.23791 14.4052L6.48492 12.8716L5.16804 14.3768ZM6.9167 15.9066C7.48761 16.4119 8.3401 16.4119 8.91101 15.9066L7.58547 14.409C7.77133 14.2445 8.05638 14.2445 8.24224 14.409L6.9167 15.9066ZM8.90668 15.9104L10.6597 14.3768L9.34279 12.8716L7.5898 14.4052L8.90668 15.9104ZM10.664 14.373C10.4781 14.5375 10.1931 14.5375 10.0072 14.373L11.3328 12.8754C10.7619 12.3701 9.90938 12.3701 9.33846 12.8754L10.664 14.373ZM10.0116 14.3768L11.7646 15.9104L13.0814 14.4052L11.3284 12.8716L10.0116 14.3768ZM11.7602 15.9066C12.3311 16.4119 13.1836 16.4119 13.7545 15.9066L12.429 14.409C12.6149 14.2445 12.8999 14.2445 13.0858 14.409L11.7602 15.9066ZM13.7502 15.9104L15.5032 14.3768L14.1863 12.8716L12.4333 14.4052L13.7502 15.9104ZM15.5075 14.373C15.3217 14.5375 15.0366 14.5375 14.8508 14.373L16.1763 12.8754C15.6054 12.3701 14.7529 12.3701 14.182 12.8754L15.5075 14.373ZM14.8551 14.3768L16.6081 15.9104L17.925 14.4052L16.172 12.8716L14.8551 14.3768ZM16.6038 15.9066C17.1747 16.4119 18.0272 16.4119 18.5981 15.9066L17.2725 14.409C17.4584 14.2445 17.7434 14.2445 17.9293 14.409L16.6038 15.9066ZM18.5937 15.9104L20.3467 14.3768L19.0299 12.8716L17.2769 14.4052L18.5937 15.9104ZM20.3511 14.373C20.1652 14.5375 19.8802 14.5375 19.6943 14.373L21.0198 12.8754C20.4489 12.3701 19.5964 12.3701 19.0255 12.8754L20.3511 14.373ZM19.6986 14.3768L21.4516 15.9104L22.7685 14.4052L21.0155 12.8716L19.6986 14.3768ZM21.4473 15.9066C22.0182 16.4119 22.8707 16.4119 23.4416 15.9066L22.1161 14.409C22.3019 14.2445 22.587 14.2445 22.7728 14.409L21.4473 15.9066ZM23.4373 15.9104L25.1903 14.3768L23.8734 12.8716L22.1204 14.4052L23.4373 15.9104ZM25.1946 14.373C25.0087 14.5375 24.7237 14.5375 24.5378 14.373L25.8634 12.8754C25.2924 12.3701 24.44 12.3701 23.869 12.8754L25.1946 14.373ZM24.543 14.3776L25.9211 15.5804L27.2362 14.0736L25.8582 12.8708L24.543 14.3776ZM25.9319 15.5898C26.5573 16.12 27.4698 16.0519 28.0194 15.4796L26.5768 14.0943C26.7414 13.9229 27.0256 13.8949 27.2254 14.0643L25.9319 15.5898ZM28.0539 15.4418C28.5975 14.8144 28.525 13.8941 27.9424 13.3465L26.5728 14.804C26.3954 14.6373 26.3635 14.3385 26.5423 14.1321L28.0539 15.4418ZM27.9165 13.3231L25.8798 11.5389L24.5619 13.0433L26.5986 14.8275L27.9165 13.3231ZM25.8836 11.5422C25.3127 11.0369 24.4602 11.0369 23.8893 11.5422L25.2149 13.0399C25.029 13.2044 24.7439 13.2044 24.5581 13.0399L25.8836 11.5422ZM23.8936 11.5384L22.1407 13.072L23.4575 14.5773L25.2105 13.0437L23.8936 11.5384ZM22.1363 13.0758C22.3222 12.9113 22.6072 12.9113 22.7931 13.0758L21.4676 14.5735C22.0385 15.0788 22.891 15.0788 23.4619 14.5735L22.1363 13.0758ZM22.7888 13.072L21.0358 11.5384L19.7189 13.0437L21.4719 14.5773L22.7888 13.072ZM21.0401 11.5422C20.4692 11.0369 19.6167 11.0369 19.0458 11.5422L20.3713 13.0399C20.1855 13.2044 19.9004 13.2044 19.7146 13.0399L21.0401 11.5422ZM19.0501 11.5384L17.2971 13.072L18.614 14.5773L20.367 13.0437L19.0501 11.5384ZM17.2928 13.0758C17.4787 12.9113 17.7637 12.9113 17.9496 13.0758L16.624 14.5735C17.1949 15.0788 18.0474 15.0788 18.6183 14.5735L17.2928 13.0758ZM17.9452 13.072L16.1922 11.5384L14.8754 13.0437L16.6284 14.5773L17.9452 13.072ZM16.1966 11.5422C15.6257 11.0369 14.7732 11.0369 14.2023 11.5422L15.5278 13.0399C15.3419 13.2044 15.0569 13.2044 14.871 13.0399L16.1966 11.5422ZM14.2066 11.5384L12.4536 13.072L13.7705 14.5773L15.5235 13.0437L14.2066 11.5384ZM12.4493 13.0758C12.6351 12.9113 12.9202 12.9113 13.106 13.0758L11.7805 14.5735C12.3514 15.0788 13.2039 15.0788 13.7748 14.5735L12.4493 13.0758ZM13.1017 13.072L11.3487 11.5384L10.0318 13.0437L11.7848 14.5773L13.1017 13.072ZM11.353 11.5422C10.7821 11.0369 9.92964 11.0369 9.35873 11.5422L10.6843 13.0399C10.4984 13.2044 10.2134 13.2044 10.0275 13.0399L11.353 11.5422ZM9.36306 11.5384L7.61007 13.072L8.92695 14.5773L10.6799 13.0437L9.36306 11.5384ZM7.60574 13.0758C7.7916 12.9113 8.07665 12.9113 8.26251 13.0758L6.93697 14.5735C7.50788 15.0788 8.36037 15.0788 8.93128 14.5735L7.60574 13.0758ZM8.25818 13.072L6.50518 11.5384L5.1883 13.0437L6.9413 14.5773L8.25818 13.072ZM6.50951 11.5422C5.9386 11.0369 5.08611 11.0369 4.5152 11.5422L5.84074 13.0399C5.65488 13.2044 5.36983 13.2044 5.18397 13.0399L6.50951 11.5422ZM4.52089 11.5373L2.47404 13.3214L3.78821 14.8291L5.83506 13.0449L4.52089 11.5373ZM2.49836 13.3009C1.83352 13.8442 1.74907 14.8009 2.30444 15.4418L3.81595 14.1321C3.90005 14.2291 3.94894 14.3664 3.93591 14.5124C3.92265 14.6612 3.8491 14.78 3.76389 14.8496L2.49836 13.3009Z" fill="#F0962F" mask="url(#path-3-inside-1_1_561)"/>
<path d="M15.1644 3.46594L15.1645 3.46589L15.1595 3.45704C14.9007 2.99621 14.6786 2.58856 14.6025 2.12817C14.5311 1.69535 14.5848 1.17588 14.9785 0.503667C14.9796 0.502933 14.9823 0.50153 14.9866 0.500666C14.9886 0.500245 14.9906 0.500044 14.9925 0.500006C14.9925 0.500063 14.9925 0.500118 14.9925 0.50017C14.6371 1.09457 14.5259 1.61958 14.6143 2.1426C14.6927 2.60618 14.9264 3.02771 15.1406 3.41408C15.1497 3.43042 15.1587 3.44669 15.1676 3.46291L15.1679 3.46336C15.4206 3.92756 15.6589 4.36543 15.7619 4.8853C15.8612 5.38721 15.8377 5.99394 15.4933 6.77522C15.4922 6.77754 15.4914 6.77826 15.4911 6.77851L15.4911 6.77853C15.4904 6.77907 15.4893 6.77988 15.4874 6.7805C15.4856 6.78112 15.4838 6.78131 15.4823 6.7812C15.4817 6.78115 15.4808 6.78104 15.4794 6.78061C15.4779 6.77943 15.477 6.77854 15.4765 6.77807L15.4766 6.77735C15.4768 6.77681 15.477 6.77602 15.4773 6.77498C15.7998 6.05472 15.8592 5.4461 15.7487 4.88244C15.6478 4.36744 15.4073 3.91893 15.1948 3.52275C15.1846 3.50369 15.1744 3.48476 15.1644 3.46594Z" fill="#F0962F" stroke="#F0962F"/>
<path d="M10.3449 6.77135C10.3434 6.77124 10.3421 6.77101 10.3407 6.7706C10.5833 6.19048 10.6217 5.69127 10.5224 5.22648C10.4297 4.79249 10.2204 4.41766 10.041 4.09626C10.0379 4.09077 10.0348 4.08528 10.0318 4.07982L10.0311 4.07871C9.82444 3.71064 9.64464 3.37869 9.57679 3.00303C9.51311 2.65046 9.54426 2.22763 9.84092 1.68748L9.841 1.68753L9.84485 1.6802C9.84519 1.68007 9.84561 1.67994 9.84613 1.67982C9.84633 1.67977 9.84651 1.67974 9.84669 1.67971C9.84897 1.68164 9.85059 1.68346 9.85173 1.685C9.58816 2.15803 9.5075 2.58771 9.58585 3.01849C9.65712 3.41035 9.85724 3.76341 10.0339 4.07513L10.041 4.08761C10.2574 4.47493 10.4538 4.83273 10.5422 5.25333C10.6268 5.65564 10.6162 6.14208 10.3524 6.77072C10.3501 6.77129 10.3475 6.77154 10.3449 6.77135Z" fill="#F0962F" stroke="#F0962F"/>
<path d="M20.5802 6.77135C20.5788 6.77124 20.5774 6.77101 20.576 6.7706C20.8187 6.19048 20.857 5.69127 20.7578 5.22648C20.6651 4.79249 20.4558 4.41766 20.2763 4.09627C20.2732 4.09077 20.2702 4.08529 20.2671 4.07982L20.2665 4.07871C20.0598 3.71064 19.88 3.37869 19.8121 3.00303C19.7485 2.65046 19.7796 2.22763 20.0763 1.68748L20.0764 1.68753L20.0802 1.6802C20.0805 1.68007 20.081 1.67994 20.0815 1.67982C20.0817 1.67977 20.0819 1.67974 20.082 1.67971C20.0843 1.68164 20.0859 1.68346 20.0871 1.685C19.8235 2.15803 19.7428 2.58771 19.8212 3.01849C19.8925 3.41035 20.0926 3.76341 20.2693 4.07513L20.2764 4.08761C20.4927 4.47493 20.6892 4.83273 20.7776 5.25333C20.8621 5.65564 20.8516 6.14208 20.5878 6.77072C20.5855 6.77129 20.5828 6.77154 20.5802 6.77135Z" fill="#F0962F" stroke="#F0962F"/>
</svg>
