<svg width="50" height="50" viewBox="0 0 50 50" fill="none" xmlns="http://www.w3.org/2000/svg">
<circle cx="25" cy="25" r="24" fill="#F0962F" stroke="#3C3D3D" stroke-width="2"/>
<path fill-rule="evenodd" clip-rule="evenodd" d="M26.6717 16.2661C26.6717 13.6835 28.7828 11.5898 31.3869 11.5898C33.991 11.5898 36.1021 13.6835 36.1021 16.2661C36.1021 18.8487 33.991 20.9424 31.3869 20.9424C29.9678 20.9424 28.695 20.3205 27.8306 19.3367L19.4952 23.4699C19.5632 23.7858 19.5989 24.1136 19.5989 24.4496C19.5989 24.7855 19.5632 25.1134 19.4952 25.4292L27.8306 29.5625C28.695 28.5786 29.9678 27.9568 31.3869 27.9568C33.991 27.9568 36.1021 30.0504 36.1021 32.633C36.1021 35.2156 33.991 37.3093 31.3869 37.3093C28.7828 37.3093 26.6717 35.2156 26.6717 32.633C26.6717 32.297 26.7074 31.9692 26.7753 31.6533L18.44 27.5201C17.5756 28.504 16.3029 29.1258 14.8837 29.1258C12.2795 29.1258 10.1685 27.0321 10.1685 24.4496C10.1685 21.8669 12.2795 19.7733 14.8837 19.7733C16.3029 19.7733 17.5756 20.3951 18.44 21.379L26.7753 17.2458C26.7074 16.9299 26.6717 16.6021 26.6717 16.2661ZM31.3869 13.928C30.0848 13.928 29.0293 14.9748 29.0293 16.2661C29.0293 17.5574 30.0848 18.6042 31.3869 18.6042C32.689 18.6042 33.7445 17.5574 33.7445 16.2661C33.7445 14.9748 32.689 13.928 31.3869 13.928ZM14.8837 22.1114C13.5816 22.1114 12.5261 23.1582 12.5261 24.4496C12.5261 25.7409 13.5816 26.7877 14.8837 26.7877C16.1857 26.7877 17.2413 25.7409 17.2413 24.4496C17.2413 23.1582 16.1857 22.1114 14.8837 22.1114ZM31.3869 30.2949C30.0848 30.2949 29.0293 31.3417 29.0293 32.633C29.0293 33.9244 30.0848 34.9711 31.3869 34.9711C32.689 34.9711 33.7445 33.9244 33.7445 32.633C33.7445 31.3417 32.689 30.2949 31.3869 30.2949Z" fill="white"/>
</svg>
